<svg xmlns="http://www.w3.org/2000/svg" viewBox="0 0 68.86 30.79"><defs><style>.cls-1{fill:#fff;}</style></defs><title>Asset 1</title><g id="Layer_2" data-name="Layer 2"><g id="Layer_1-2" data-name="Layer 1"><path class="cls-1" d="M2.13.14V4.77h.08l.09-.21L3.92.14H5.81L4,4.5l2,8.88H4.15L2.8,7.62l0-.27H2.69l-.11.27L2.13,8.7v4.68H.19V.14Z"/><path class="cls-1" d="M11.31,13.38l-1-5.58H9.78v5.58H7.84V.14H9.78C12.11.14,13.1,1.46,13.1,4A3.65,3.65,0,0,1,12,7l1.24,6.41ZM9.78,6a1.37,1.37,0,0,0,.92-.29A2.12,2.12,0,0,0,11.22,4a2.16,2.16,0,0,0-.52-1.69,1.35,1.35,0,0,0-.92-.27Z"/><path class="cls-1" d="M15.24.14h1.94V13.38H15.24Z"/><path class="cls-1" d="M22.74,3.69A4.16,4.16,0,0,0,22.6,2.4c-.13-.36-.32-.62-.63-.62-.5,0-.67.54-.67,1.32a3,3,0,0,0,.49,1.42c.29.5.67,1,1,1.58a22.13,22.13,0,0,1,1.25,2,4.57,4.57,0,0,1,.57,2.07,4.1,4.1,0,0,1-.56,2.32,2.36,2.36,0,0,1-2.14,1,2.41,2.41,0,0,1-2.34-1.19,5.71,5.71,0,0,1-.48-2.66L21,9.49A4.78,4.78,0,0,0,21.2,11c.12.43.34.72.75.72.58,0,.79-.61.79-1.46a3.3,3.3,0,0,0-.5-1.46c-.16-.25-.32-.52-.5-.79-.38-.54-.8-1.15-1.23-1.82a7.59,7.59,0,0,1-1-2A3.45,3.45,0,0,1,19.4,3.1,3.72,3.72,0,0,1,20,1a2.37,2.37,0,0,1,2-1,2.29,2.29,0,0,1,2.24,1.17,5.26,5.26,0,0,1,.48,2.34Z"/><path class="cls-1" d="M25.91,2.14v-2h5.62v2H29.69V13.38H27.75V2.14Z"/><path class="cls-1" d="M33.18.14h2V13.38h-2Z"/><path class="cls-1" d="M37.4,7.67H40V9.38H37.4Z"/><path class="cls-1" d="M42.27.14h1.95V11.58h2.57v1.8H42.27Z"/><path class="cls-1" d="M50.41,4.38l.05.12h0l0-.12,1-4.24h1.9l-2,7.6v5.64H49.51V7.74l-2-7.6h1.91Z"/><path class="cls-1" d="M57.23,6.48l-.16-.61H57v7.51H55.18V.14h1.73L58.8,7l.16.61h.11V.14h1.78V13.38H59.12Z"/><path class="cls-1" d="M65.24,6.48l-.16-.61H65v7.51H63.19V.14h1.73L66.81,7l.16.61h.11V.14h1.78V13.38H67.13Z"/><path class="cls-1" d="M0,28.86a.83.83,0,0,0,.88-.32A1,1,0,0,0,1,27.89V17.41H3V28.2a2.69,2.69,0,0,1-.63,1.87,2.79,2.79,0,0,1-2.36.7Z"/><path class="cls-1" d="M4.7,30.65l2-13.24H9.07l2,13.24H9.18L8.82,28H7l-.36,2.7ZM8,21.72l0-.35H7.83l0,.35-.56,4.17H8.55Z"/><path class="cls-1" d="M17.93,26.11v1.82a3.59,3.59,0,0,1-.33,1.44,2.44,2.44,0,0,1-.77,1,2.3,2.3,0,0,1-1.49.45,2.29,2.29,0,0,1-2.27-1.42,3.59,3.59,0,0,1-.33-1.44v-7.8a3.57,3.57,0,0,1,.33-1.42,2.44,2.44,0,0,1,.75-1,2.5,2.5,0,0,1,1.52-.45,2.42,2.42,0,0,1,1.49.45,2.5,2.5,0,0,1,.77,1,3.57,3.57,0,0,1,.33,1.42V22H16.11V20.13a1.14,1.14,0,0,0-.29-.83.65.65,0,0,0-1,.35,1.71,1.71,0,0,0-.09.48v7.8a1.26,1.26,0,0,0,.3.83.52.52,0,0,0,.38.14.62.62,0,0,0,.67-.49,1.28,1.28,0,0,0,.07-.48V26.11Z"/><path class="cls-1" d="M25.06,27.93a3.59,3.59,0,0,1-.33,1.44,2.44,2.44,0,0,1-.77,1,2.31,2.31,0,0,1-1.5.45A2.36,2.36,0,0,1,21,30.34a2.39,2.39,0,0,1-.75-1,3.59,3.59,0,0,1-.33-1.44v-7.8a3.57,3.57,0,0,1,.33-1.42,2.44,2.44,0,0,1,.75-1,2.49,2.49,0,0,1,1.51-.45,2.43,2.43,0,0,1,1.5.45,2.5,2.5,0,0,1,.77,1,3.57,3.57,0,0,1,.33,1.42Zm-1.95-7.8a1.21,1.21,0,0,0-.25-.83.56.56,0,0,0-.4-.14.59.59,0,0,0-.57.49,1.21,1.21,0,0,0-.07.48v7.8a1.15,1.15,0,0,0,.27.83.5.5,0,0,0,.37.14.56.56,0,0,0,.58-.49,1.28,1.28,0,0,0,.07-.48Z"/><path class="cls-1" d="M30.8,17.41h1.89l-2,13.24H28.73l-2-13.24H28.6l1,7.28.08.56h.1l.08-.56Z"/><path class="cls-1" d="M34.47,17.41h1.94V30.65H34.47Z"/><path class="cls-1" d="M40.81,23.75l-.17-.61h-.1v7.51H38.75V17.41h1.73l1.89,6.9.16.61h.11V17.41h1.78V30.65H42.7Z"/><path class="cls-1" d="M51.82,27.93a3.59,3.59,0,0,1-.32,1.44,2.47,2.47,0,0,1-.78,1,2.28,2.28,0,0,1-1.49.45,2.34,2.34,0,0,1-1.51-.45,2.41,2.41,0,0,1-.76-1,3.43,3.43,0,0,1-.32-1.44v-7.8A3.41,3.41,0,0,1,47,18.71a2.29,2.29,0,0,1,2.27-1.44,2.4,2.4,0,0,1,1.49.45,2.53,2.53,0,0,1,.78,1,3.57,3.57,0,0,1,.32,1.42Zm-1.94-7.8a1.21,1.21,0,0,0-.25-.83.57.57,0,0,0-.4-.14.61.61,0,0,0-.58.49,1.43,1.43,0,0,0-.07.48v7.8a1.15,1.15,0,0,0,.27.83.52.52,0,0,0,.38.14.57.57,0,0,0,.58-.49,1.28,1.28,0,0,0,.07-.48Z"/></g></g></svg>